<svg xmlns="http://www.w3.org/2000/svg" version="1.1" xmlns:xlink="http://www.w3.org/1999/xlink" viewBox="0 0 200 200" width="200" height="200"><rect width="200" height="200" fill="url('#gradient')"></rect><defs><linearGradient id="gradient" gradientTransform="rotate(85 0.5 0.5)"><stop offset="0%" stop-color="#4e7eef"></stop><stop offset="100%" stop-color="#1a5895"></stop></linearGradient></defs><g><g fill="#050907" transform="matrix(2.060149600206345,0,0,2.060149600206345,19.787526605932996,114.44336718457674)" stroke="#aade39" stroke-width="0"><path d="M1.07-14.22L5.58-14.22L8.75-4.33L11.91-14.22L16.43-14.22L16.43 0L12.99 0L12.99-3.32L13.32-10.12L9.88 0L7.62 0L4.17-10.13L4.50-3.32L4.50 0L1.07 0L1.07-14.22ZM26.46 0L23.44-5.29L22.03-3.75L22.03 0L18.60 0L18.60-14.22L22.03-14.22L22.03-7.95L23.22-9.76L26.29-14.22L30.53-14.22L25.72-7.93L30.53 0L26.46 0ZM42.56-14.22L42.56-11.57L38.29-11.57L38.29 0L34.86 0L34.86-11.57L30.67-11.57L30.67-14.22L42.56-14.22ZM48.10 0.20L48.10 0.20Q45.66 0.20 44.16-1.25Q42.66-2.71 42.66-5.03L42.66-5.03L42.66-5.30Q42.66-6.92 43.26-8.16Q43.86-9.40 45.01-10.08Q46.16-10.76 47.74-10.76L47.74-10.76Q49.97-10.76 51.26-9.38Q52.55-8.00 52.55-5.53L52.55-5.53L52.55-4.25L46.01-4.25Q46.18-3.36 46.78-2.85Q47.37-2.34 48.32-2.34L48.32-2.34Q49.88-2.34 50.76-3.44L50.76-3.44L52.27-1.66Q51.65-0.81 50.52-0.31Q49.39 0.20 48.10 0.20ZM47.72-8.22L47.72-8.22Q46.28-8.22 46.01-6.31L46.01-6.31L49.33-6.31L49.33-6.56Q49.35-7.35 48.93-7.79Q48.51-8.22 47.72-8.22ZM60.32-10.64L60.26-7.59L59.18-7.67Q57.63-7.67 57.19-6.69L57.19-6.69L57.19 0L53.90 0L53.90-10.57L56.98-10.57L57.09-9.21Q57.92-10.76 59.40-10.76L59.40-10.76Q59.93-10.76 60.32-10.64L60.32-10.64ZM61.47-10.57L64.56-10.57L64.67-9.33Q65.79-10.76 67.69-10.76L67.69-10.76Q69.69-10.76 70.39-9.17L70.39-9.17Q71.46-10.76 73.50-10.76L73.50-10.76Q76.71-10.76 76.80-6.88L76.80-6.88L76.80 0L73.50 0L73.50-6.67Q73.50-7.48 73.22-7.85Q72.95-8.22 72.23-8.22L72.23-8.22Q71.25-8.22 70.77-7.35L70.77-7.35L70.78-7.22L70.78 0L67.48 0L67.48-6.65Q67.48-7.48 67.22-7.85Q66.95-8.22 66.21-8.22L66.21-8.22Q65.26-8.22 64.77-7.35L64.77-7.35L64.77 0L61.47 0L61.47-10.57Z"></path></g></g></svg>